{
  "accessors": [
    {
      "bufferView": 2,
      "componentType": 5126,
      "count": 8645,
      "max": [
        2.79789400100708,
        2.469900608062744,
        6.061385154724121
      ],
      "min": [
        -4.880570411682129,
        -2.469900608062744,
        -0.16055625677108765
      ],
      "type": "VEC3"
    },
    {
      "bufferView": 2,
      "byteOffset": 103740,
      "componentType": 5126,
      "count": 8645,
      "max": [
        1.0,
        1.0,
        1.0
      ],
      "min": [
        -1.0,
        -1.0,
        -1.0
      ],
      "type": "VEC3"
    },
    {
      "bufferView": 3,
      "componentType": 5126,
      "count": 8645,
      "max": [
        1.0,
        1.0,
        1.0,
        1.0
      ],
      "min": [
        -1.0,
        -1.0,
        -1.0,
        -1.0
      ],
      "type": "VEC4"
    },
    {
      "bufferView": 1,
      "componentType": 5126,
      "count": 8645,
      "max": [
        0.9933199882507324,
        0.97213214635849
      ],
      "min": [
        0.006680011749267578,
        0.006680011749267578
      ],
      "type": "VEC2"
    },
    {
      "bufferView": 1,
      "byteOffset": 69160,
      "componentType": 5126,
      "count": 8645,
      "max": [
        0.9933199882507324,
        0.97213214635849
      ],
      "min": [
        0.006680011749267578,
        0.006680011749267578
      ],
      "type": "VEC2"
    },
    {
      "bufferView": 1,
      "byteOffset": 138320,
      "componentType": 5126,
      "count": 8645,
      "max": [
        0.9933199882507324,
        0.97213214635849
      ],
      "min": [
        0.006680011749267578,
        0.006680011749267578
      ],
      "type": "VEC2"
    },
    {
      "bufferView": 0,
      "componentType": 5125,
      "count": 42003,
      "type": "SCALAR"
    },
    {
      "bufferView": 2,
      "byteOffset": 207480,
      "componentType": 5126,
      "count": 274,
      "max": [
        1.1224865913391113,
        1.3030508756637573,
        3.479862928390503
      ],
      "min": [
        -4.557093620300293,
        -1.3030508756637573,
        0.33586883544921875
      ],
      "type": "VEC3"
    },
    {
      "bufferView": 2,
      "byteOffset": 210768,
      "componentType": 5126,
      "count": 274,
      "max": [
        0.5522650480270386,
        1.0,
        0.08306162804365158
      ],
      "min": [
        -0.19719910621643066,
        -1.0,
        -0.18535099923610687
      ],
      "type": "VEC3"
    },
    {
      "bufferView": 1,
      "byteOffset": 207480,
      "componentType": 5126,
      "count": 274,
      "max": [
        0.9599132537841797,
        0.985519528388977
      ],
      "min": [
        0.01296880841255188,
        0.04367277771234512
      ],
      "type": "VEC2"
    },
    {
      "bufferView": 0,
      "byteOffset": 168012,
      "componentType": 5125,
      "count": 1140,
      "type": "SCALAR"
    }
  ],
  "asset": {
    "extras": {
      "author": "assetfactory (https://sketchfab.com/assetfactory)",
      "license": "SKETCHFAB Standard (https://sketchfab.com/licenses)",
      "source": "https://sketchfab.com/3d-models/ice-cream-car-5ca185308bc34c26ae1cc6306754c50f",
      "title": "Ice cream car"
    },
    "generator": "Sketchfab-16.33.0",
    "version": "2.0"
  },
  "bufferViews": [
    {
      "buffer": 0,
      "byteLength": 172572,
      "name": "floatBufferViews",
      "target": 34963
    },
    {
      "buffer": 0,
      "byteLength": 209672,
      "byteOffset": 172572,
      "byteStride": 8,
      "name": "floatBufferViews",
      "target": 34962
    },
    {
      "buffer": 0,
      "byteLength": 214056,
      "byteOffset": 382244,
      "byteStride": 12,
      "name": "floatBufferViews",
      "target": 34962
    },
    {
      "buffer": 0,
      "byteLength": 138320,
      "byteOffset": 596300,
      "byteStride": 16,
      "name": "floatBufferViews",
      "target": 34962
    }
  ],
  "buffers": [
    {
      "byteLength": 734620,
      "uri": "scene.bin"
    }
  ],
  "images": [
    {
      "uri": "textures/ice_cream_van_baseColor.png"
    },
    {
      "uri": "textures/ice_cream_van_metallicRoughness.png"
    },
    {
      "uri": "textures/ice_cream_van_normal.png"
    },
    {
      "uri": "textures/decals_baseColor.png"
    }
  ],
  "materials": [
    {
      "doubleSided": true,
      "name": "ice_cream_van",
      "normalTexture": {
        "index": 2
      },
      "pbrMetallicRoughness": {
        "baseColorTexture": {
          "index": 0
        },
        "metallicRoughnessTexture": {
          "index": 1
        }
      }
    },
    {
      "alphaMode": "BLEND",
      "doubleSided": true,
      "name": "decals",
      "pbrMetallicRoughness": {
        "baseColorTexture": {
          "index": 3
        },
        "metallicFactor": 0.0,
        "roughnessFactor": 0.1788854381999832
      }
    }
  ],
  "meshes": [
    {
      "name": "ice_cream_van_ice_cream_van_0",
      "primitives": [
        {
          "attributes": {
            "NORMAL": 1,
            "POSITION": 0,
            "TANGENT": 2,
            "TEXCOORD_0": 3,
            "TEXCOORD_1": 4,
            "TEXCOORD_2": 5
          },
          "indices": 6,
          "material": 0,
          "mode": 4
        }
      ]
    },
    {
      "name": "decal_wall_right_decals_0",
      "primitives": [
        {
          "attributes": {
            "NORMAL": 8,
            "POSITION": 7,
            "TEXCOORD_0": 9
          },
          "indices": 10,
          "material": 1,
          "mode": 4
        }
      ]
    }
  ],
  "nodes": [
    {
      "children": [
        1
      ],
      "matrix": [
        1.0,
        0.0,
        0.0,
        0.0,
        0.0,
        2.220446049250313e-16,
        -1.0,
        0.0,
        0.0,
        1.0,
        2.220446049250313e-16,
        0.0,
        0.0,
        0.0,
        0.0,
        1.0
      ],
      "name": "Sketchfab_model"
    },
    {
      "children": [
        2
      ],
      "matrix": [
        0.009999999776482582,
        0.0,
        0.0,
        0.0,
        0.0,
        0.0,
        0.009999999776482582,
        0.0,
        0.0,
        -0.009999999776482582,
        0.0,
        0.0,
        0.0,
        0.0,
        0.0,
        1.0
      ],
      "name": "a0c768168a344f0e8e0698862e3a4f9b.fbx"
    },
    {
      "children": [
        3,
        5
      ],
      "name": "RootNode"
    },
    {
      "children": [
        4
      ],
      "matrix": [
        100.0,
        0.0,
        0.0,
        0.0,
        0.0,
        -1.629206793918314e-05,
        -99.99999999999868,
        0.0,
        0.0,
        99.99999999999868,
        -1.629206793918314e-05,
        0.0,
        96.16690063476563,
        4.10219144821167,
        0.0,
        1.0
      ],
      "name": "ice_cream_van"
    },
    {
      "mesh": 0,
      "name": "ice_cream_van_ice_cream_van_0"
    },
    {
      "children": [
        6
      ],
      "matrix": [
        100.0,
        0.0,
        0.0,
        0.0,
        0.0,
        -1.629206793918314e-05,
        -99.99999999999868,
        0.0,
        0.0,
        99.99999999999868,
        -1.629206793918314e-05,
        0.0,
        96.16690063476563,
        4.10219144821167,
        0.0,
        1.0
      ],
      "name": "decal_wall_right"
    },
    {
      "mesh": 1,
      "name": "decal_wall_right_decals_0"
    }
  ],
  "samplers": [
    {
      "magFilter": 9729,
      "minFilter": 9987,
      "wrapS": 10497,
      "wrapT": 10497
    }
  ],
  "scene": 0,
  "scenes": [
    {
      "name": "Sketchfab_Scene",
      "nodes": [
        0
      ]
    }
  ],
  "textures": [
    {
      "sampler": 0,
      "source": 0
    },
    {
      "sampler": 0,
      "source": 1
    },
    {
      "sampler": 0,
      "source": 2
    },
    {
      "sampler": 0,
      "source": 3
    }
  ]
}
